<svg xmlns="http://www.w3.org/2000/svg" width="17.42" height="20.277" viewBox="0 0 17.42 20.277">
  <path id="Shape_1" data-name="Shape 1" d="M16.383,5.533a.158.158,0,0,0-.158-.146H13.375V4.594a4.593,4.593,0,1,0-9.185,0v.792H1.339a.158.158,0,0,0-.158.146L.073,20.107a.159.159,0,0,0,.158.17h17.1a.158.158,0,0,0,.158-.17ZM5.457,4.594a3.326,3.326,0,1,1,6.651,0v.792H5.457ZM4.823,9.822A1.586,1.586,0,0,1,3.239,8.238a1.5,1.5,0,0,1,.95-1.452V8.238a.633.633,0,1,0,1.267,0V6.787a1.5,1.5,0,0,1,.95,1.451A1.586,1.586,0,0,1,4.823,9.822Zm7.918,0a1.586,1.586,0,0,1-1.584-1.584,1.5,1.5,0,0,1,.95-1.452V8.238a.633.633,0,1,0,1.267,0V6.787a1.5,1.5,0,0,1,.95,1.451A1.586,1.586,0,0,1,12.741,9.822Z" transform="translate(-0.072)" fill="#fff"/>
</svg>
