<svg id="Group_232" data-name="Group 232" xmlns="http://www.w3.org/2000/svg" width="56.087" height="33.426" viewBox="0 0 56.087 33.426">
  <g id="Group_176" data-name="Group 176" transform="translate(0)">
    <g id="Group_157" data-name="Group 157" transform="translate(6.628 32.206)">
      <path id="Path_226" data-name="Path 226" d="M54.983,57.15H13.575a.575.575,0,0,1,0-1.15H54.983a.575.575,0,0,1,0,1.15Z" transform="translate(-13 -56)" fill="#6b0a0c"/>
    </g>
    <g id="Group_158" data-name="Group 158" transform="translate(50.336 32.206)">
      <path id="Path_227" data-name="Path 227" d="M92.451,57.15H89.575a.575.575,0,0,1,0-1.15h2.876a.575.575,0,0,1,0,1.15Z" transform="translate(-89 -56)" fill="#6b0a0c"/>
    </g>
    <g id="Group_159" data-name="Group 159" transform="translate(1.452 32.206)">
      <path id="Path_228" data-name="Path 228" d="M7.451,57.15H4.575a.575.575,0,0,1,0-1.15H7.451a.575.575,0,0,1,0,1.15Z" transform="translate(-4 -56)" fill="#6b0a0c"/>
    </g>
    <circle id="Ellipse_125" data-name="Ellipse 125" cx="0.465" cy="0.465" r="0.465" transform="translate(54.883 32.495)" fill="#6b0b0c"/>
    <circle id="Ellipse_126" data-name="Ellipse 126" cx="0.465" cy="0.465" r="0.465" transform="translate(0 32.495)" fill="#6b0b0c"/>
    <circle id="Ellipse_127" data-name="Ellipse 127" cx="0.465" cy="0.465" r="0.465" transform="translate(35.349 9.24)" fill="#f26a56"/>
    <circle id="Ellipse_128" data-name="Ellipse 128" cx="0.465" cy="0.465" r="0.465" transform="translate(10.233 7.379)" fill="#f26a56"/>
    <circle id="Ellipse_129" data-name="Ellipse 129" cx="0.465" cy="0.465" r="0.465" transform="translate(41.86 8.31)" fill="#f26a56"/>
    <circle id="Ellipse_130" data-name="Ellipse 130" cx="0.465" cy="0.465" r="0.465" transform="translate(24.186 8.31)" fill="#ffe278"/>
    <ellipse id="Ellipse_131" data-name="Ellipse 131" cx="0.465" cy="0.93" rx="0.465" ry="0.93" transform="translate(53.023 12.03)" fill="#ffe278"/>
    <circle id="Ellipse_132" data-name="Ellipse 132" cx="0.465" cy="0.465" r="0.465" transform="translate(4.651 8.31)" fill="#ffe278"/>
    <circle id="Ellipse_133" data-name="Ellipse 133" cx="0.465" cy="0.465" r="0.465" transform="translate(43.721 14.821)" fill="#ffe278"/>
    <circle id="Ellipse_134" data-name="Ellipse 134" cx="0.465" cy="0.465" r="0.465" transform="translate(38.139 13.891)" fill="#a35425"/>
    <circle id="Ellipse_135" data-name="Ellipse 135" cx="0.93" cy="0.93" r="0.93" transform="translate(48.372 20.403)" fill="#89c763"/>
    <ellipse id="Ellipse_136" data-name="Ellipse 136" cx="0.465" cy="0.93" rx="0.465" ry="0.93" transform="translate(37.209 3.658)" fill="#89c763"/>
    <circle id="Ellipse_137" data-name="Ellipse 137" cx="0.465" cy="0.465" r="0.465" transform="translate(7.442 19.472)" fill="#89c763"/>
    <g id="Group_160" data-name="Group 160" transform="translate(27.907 8.627)">
      <path id="Path_229" data-name="Path 229" d="M51.725,18.451a1.725,1.725,0,1,1,1.725-1.725A1.727,1.727,0,0,1,51.725,18.451Zm0-2.3a.575.575,0,1,0,.575.575A.576.576,0,0,0,51.725,16.15Z" transform="translate(-50 -15)" fill="#f26a56"/>
    </g>
    <g id="Group_161" data-name="Group 161" transform="translate(25.606)">
      <path id="Path_230" data-name="Path 230" d="M47.725,3.451a1.725,1.725,0,1,1,1.725-1.725A1.727,1.727,0,0,1,47.725,3.451Zm0-2.3a.575.575,0,1,0,.575.575A.576.576,0,0,0,47.725,1.15Z" transform="translate(-46 0)" fill="#ffe278"/>
    </g>
    <g id="Group_162" data-name="Group 162" transform="translate(46.31 8.051)">
      <path id="Path_231" data-name="Path 231" d="M83.725,17.451a1.725,1.725,0,1,1,1.725-1.725A1.727,1.727,0,0,1,83.725,17.451Zm0-2.3a.575.575,0,1,0,.575.575A.576.576,0,0,0,83.725,15.15Z" transform="translate(-82 -14)" fill="#f26a56"/>
    </g>
    <g id="Group_163" data-name="Group 163" transform="translate(52.636 24.154)">
      <path id="Path_232" data-name="Path 232" d="M94.725,45.451a1.725,1.725,0,1,1,1.725-1.725A1.727,1.727,0,0,1,94.725,45.451Zm0-2.3a.575.575,0,1,0,.575.575A.575.575,0,0,0,94.725,43.15Z" transform="translate(-93 -42)" fill="#89c763"/>
    </g>
    <g id="Group_164" data-name="Group 164" transform="translate(3.177 13.803)">
      <path id="Path_233" data-name="Path 233" d="M8.725,27.451a1.725,1.725,0,1,1,1.725-1.725A1.727,1.727,0,0,1,8.725,27.451Zm0-2.3a.575.575,0,1,0,.575.575A.576.576,0,0,0,8.725,25.15Z" transform="translate(-7 -24)" fill="#a35425"/>
    </g>
    <path id="Path_234" data-name="Path 234" d="M89.251,29.438l.456-.456a.575.575,0,0,0-.813-.813l-.456.456-.456-.456a.575.575,0,0,0-.813.813l.456.456-.456.456a.575.575,0,1,0,.813.813l.456-.456.456.456a.575.575,0,0,0,.813-.813Z" transform="translate(-37.814 -11.897)" fill="#ffe278"/>
    <path id="Path_235" data-name="Path 235" d="M4.251,40.438l.456-.456a.575.575,0,1,0-.813-.813l-.456.456-.456-.456a.575.575,0,1,0-.813.813l.456.456-.456.456a.575.575,0,1,0,.813.813l.456-.456.456.456a.575.575,0,1,0,.813-.813Z" transform="translate(-1.698 -16.571)" fill="#ffe278"/>
    <path id="Path_236" data-name="Path 236" d="M35.251,8.438l.456-.456a.575.575,0,1,0-.813-.813l-.456.456-.456-.456a.575.575,0,0,0-.813.813l.456.456-.456.456a.575.575,0,1,0,.813.813l.456-.456.456.456a.575.575,0,1,0,.813-.813Z" transform="translate(-14.87 -2.974)" fill="#89c763"/>
    <g id="Group_169" data-name="Group 169" transform="translate(15.83 13.803)">
      <path id="Path_237" data-name="Path 237" d="M45.889,28.876a3.451,3.451,0,0,0-6.806,0Z" transform="translate(-33.284 -24.85)" fill="#ffe27a"/>
      <path id="Path_238" data-name="Path 238" d="M41.6,24A4.606,4.606,0,0,0,37,28.6a.575.575,0,0,0,.575.575h8.051A.575.575,0,0,0,46.2,28.6,4.606,4.606,0,0,0,41.6,24Zm-1.627,4.026a1.726,1.726,0,0,1,3.254,0Zm4.444,0a2.876,2.876,0,0,0-5.635,0H38.2a3.451,3.451,0,0,1,6.806,0Z" transform="translate(-32.399 -24)" fill="#6b0a0c"/>
      <g id="Group_165" data-name="Group 165" transform="translate(10.352 1.725)">
        <ellipse id="Ellipse_138" data-name="Ellipse 138" cx="1.395" cy="0.93" rx="1.395" ry="0.93" transform="translate(0.795 1.154)" fill="#f6b545"/>
        <path id="Path_239" data-name="Path 239" d="M49.3,31.6a2.3,2.3,0,1,1,2.3-2.3A2.3,2.3,0,0,1,49.3,31.6Zm0-3.451a1.15,1.15,0,1,0,1.15,1.15A1.151,1.151,0,0,0,49.3,28.15Z" transform="translate(-47 -27)" fill="#6b0a0c"/>
      </g>
      <g id="Group_166" data-name="Group 166" transform="translate(12.652 0.575)">
        <circle id="Ellipse_139" data-name="Ellipse 139" cx="0.93" cy="0.93" r="0.93" transform="translate(1.285 1.374)" fill="#f04b4d"/>
        <path id="Path_240" data-name="Path 240" d="M53.3,29.6a2.3,2.3,0,1,1,2.3-2.3A2.3,2.3,0,0,1,53.3,29.6Zm0-3.451a1.15,1.15,0,1,0,1.15,1.15A1.151,1.151,0,0,0,53.3,26.15Z" transform="translate(-51 -25)" fill="#6b0a0c"/>
      </g>
      <g id="Group_167" data-name="Group 167" transform="translate(2.3 4.601)">
        <ellipse id="Ellipse_140" data-name="Ellipse 140" cx="0.93" cy="1.395" rx="0.93" ry="1.395" transform="translate(1.405 1.069)" fill="#f04b4d"/>
        <path id="Path_241" data-name="Path 241" d="M35.3,36.6a2.3,2.3,0,1,1,2.3-2.3A2.3,2.3,0,0,1,35.3,36.6Zm0-3.451a1.15,1.15,0,1,0,1.15,1.15A1.151,1.151,0,0,0,35.3,33.15Z" transform="translate(-33 -32)" fill="#6b0a0c"/>
      </g>
      <g id="Group_168" data-name="Group 168" transform="translate(4.026 2.3)">
        <ellipse id="Ellipse_141" data-name="Ellipse 141" cx="1.86" cy="0.93" rx="1.86" ry="0.93" transform="translate(0.61 1.509)" fill="#89c763"/>
        <path id="Path_242" data-name="Path 242" d="M38.3,32.6a2.3,2.3,0,1,1,2.3-2.3A2.3,2.3,0,0,1,38.3,32.6Zm0-3.451a1.15,1.15,0,1,0,1.15,1.15A1.151,1.151,0,0,0,38.3,29.15Z" transform="translate(-36 -28)" fill="#6b0a0c"/>
      </g>
      <path id="Path_243" data-name="Path 243" d="M45,55a.576.576,0,0,0,.575.575h5.751A.575.575,0,0,0,51.9,55Z" transform="translate(-35.798 -37.172)" fill="#ecf0f9"/>
      <path id="Path_244" data-name="Path 244" d="M50.476,55.876H44.725A1.727,1.727,0,0,1,43,54.15v-.575A.575.575,0,0,1,43.575,53h8.051a.575.575,0,0,1,.575.575v.575A1.727,1.727,0,0,1,50.476,55.876ZM44.15,54.15a.576.576,0,0,0,.575.575h5.751a.575.575,0,0,0,.575-.575Z" transform="translate(-34.949 -36.322)" fill="#6b0a0c"/>
      <path id="Path_245" data-name="Path 245" d="M53.429,39H31.575a.576.576,0,0,0-.575.575,7.485,7.485,0,0,0,7.476,7.476h8.051A7.485,7.485,0,0,0,54,39.575.575.575,0,0,0,53.429,39Z" transform="translate(-29.85 -30.373)" fill="#ecf0f9"/>
      <path id="Path_246" data-name="Path 246" d="M45.678,47.352H37.627A8.636,8.636,0,0,1,29,38.725,1.727,1.727,0,0,1,30.725,37H52.579A1.727,1.727,0,0,1,54.3,38.725,8.636,8.636,0,0,1,45.678,47.352Zm-14.953-9.2a.576.576,0,0,0-.575.575A7.485,7.485,0,0,0,37.627,46.2h8.051a7.485,7.485,0,0,0,7.476-7.476.575.575,0,0,0-.575-.575Z" transform="translate(-29 -29.524)" fill="#6b0a0c"/>
      <path id="Path_247" data-name="Path 247" d="M60.193,34.026a4.6,4.6,0,0,0-9.13,0Z" transform="translate(-38.374 -26.549)" fill="#ffe27a"/>
      <path id="Path_248" data-name="Path 248" d="M54.751,28A5.758,5.758,0,0,0,49,33.751a.575.575,0,0,0,.575.575H59.927a.575.575,0,0,0,.575-.575A5.758,5.758,0,0,0,54.751,28Zm-1,5.176a1.149,1.149,0,0,1,1.991,0Zm3.214,0a2.289,2.289,0,0,0-4.438,0h-.6a2.876,2.876,0,0,1,5.635,0Zm1.761,0a4.02,4.02,0,0,0-7.959,0h-.585a4.6,4.6,0,0,1,9.13,0Z" transform="translate(-37.498 -25.7)" fill="#6b0a0c"/>
      <path id="Path_249" data-name="Path 249" d="M41.508,32.859a.377.377,0,0,0-.372.045.5.5,0,0,0-.2.435,1.652,1.652,0,0,1-.866,1.544h7.4a1.655,1.655,0,0,1-.867-1.544.493.493,0,0,0-.2-.435.377.377,0,0,0-.371-.045,1.555,1.555,0,0,1-1.909-.644.41.41,0,0,0-.7,0A1.553,1.553,0,0,1,41.508,32.859Z" transform="translate(-33.704 -27.406)" fill="#89c763"/>
      <path id="Path_250" data-name="Path 250" d="M47.352,35.176H37.575A.575.575,0,0,1,37,34.594a1.608,1.608,0,0,1,1.16-1.558.479.479,0,0,0,.323-.495,1.64,1.64,0,0,1,.682-1.431,1.536,1.536,0,0,1,1.471-.174.4.4,0,0,0,.5-.18,1.551,1.551,0,0,1,2.663,0,.4.4,0,0,0,.5.18,1.534,1.534,0,0,1,1.47.174,1.64,1.64,0,0,1,.683,1.431.478.478,0,0,0,.324.495,1.607,1.607,0,0,1,1.159,1.558.575.575,0,0,1-.575.582Zm-8.586-1.15h7.4a1.655,1.655,0,0,1-.867-1.544.493.493,0,0,0-.2-.435A.377.377,0,0,0,44.724,32a1.555,1.555,0,0,1-1.909-.644.41.41,0,0,0-.7,0A1.553,1.553,0,0,1,40.2,32a.377.377,0,0,0-.372.045.5.5,0,0,0-.2.435A1.652,1.652,0,0,1,38.766,34.026Z" transform="translate(-32.399 -26.549)" fill="#6b0a0c"/>
      <circle id="Ellipse_142" data-name="Ellipse 142" cx="0.465" cy="0.465" r="0.465" transform="translate(12.077 11.251)" fill="#4c9cd6"/>
      <circle id="Ellipse_143" data-name="Ellipse 143" cx="0.465" cy="0.465" r="0.465" transform="translate(14.868 11.251)" fill="#4c9cd6"/>
      <ellipse id="Ellipse_144" data-name="Ellipse 144" cx="0.93" cy="0.465" rx="0.93" ry="0.465" transform="translate(17.659 11.251)" fill="#4c9cd6"/>
      <circle id="Ellipse_145" data-name="Ellipse 145" cx="0.465" cy="0.465" r="0.465" transform="translate(20.449 11.251)" fill="#4c9cd6"/>
      <ellipse id="Ellipse_146" data-name="Ellipse 146" cx="0.93" cy="0.465" rx="0.93" ry="0.465" transform="translate(6.496 11.251)" fill="#4c9cd6"/>
      <circle id="Ellipse_147" data-name="Ellipse 147" cx="0.465" cy="0.465" r="0.465" transform="translate(9.287 11.251)" fill="#4c9cd6"/>
      <path id="Path_251" data-name="Path 251" d="M53.429,39h-.6a7.482,7.482,0,0,1-7.447,6.9H37.326a7.161,7.161,0,0,1-.8-.045,1.032,1.032,0,0,1-.928-1.02h0a11.941,11.941,0,0,0-1.316-5.45l-.2-.386H31.575a.579.579,0,0,0-.575.586,7.433,7.433,0,0,0,1.654,4.666l0,0,.008.009c.023.028.043.059.067.087.065.078.128.163.2.231a7.439,7.439,0,0,0,5.555,2.474h8.051A7.485,7.485,0,0,0,54,39.592.581.581,0,0,0,53.429,39Z" transform="translate(-29.85 -30.373)" fill="#c9d5e3"/>
      <circle id="Ellipse_148" data-name="Ellipse 148" cx="0.465" cy="0.465" r="0.465" transform="translate(3.705 11.251)" fill="#4c9cd6"/>
    </g>
    <g id="Group_173" data-name="Group 173" transform="translate(8.928 10.927)">
      <path id="Path_252" data-name="Path 252" d="M21.862,26v2.215a12.028,12.028,0,0,1-1.51,5.828,10.878,10.878,0,0,0-1.365,5.269v3.366a.576.576,0,0,0,.575.575h8.051a.575.575,0,0,0,.575-.575V39.314a10.877,10.877,0,0,0-1.365-5.269,12.029,12.029,0,0,1-1.511-5.828V26Z" transform="translate(-17.844 -21.975)" fill="#a35425"/>
      <g id="Group_170" data-name="Group 170" transform="translate(1.15 4.026)">
        <path id="Path_253" data-name="Path 253" d="M26.836,34.043a12.424,12.424,0,0,1-1.51-5.828V26h-1.15v2.3a12.03,12.03,0,0,0,1.51,5.828A10.876,10.876,0,0,1,27.051,39.4V42.1a.576.576,0,0,1-.575.575H19a.576.576,0,0,0,.575.575h8.051a.576.576,0,0,0,.575-.575V39.313A10.783,10.783,0,0,0,26.836,34.043Z" transform="translate(-19 -26)" fill="#91451f"/>
      </g>
      <path id="Path_254" data-name="Path 254" d="M22.883,22.725h3.985l.831-1.247A.308.308,0,0,0,27.443,21H22.308a.308.308,0,0,0-.256.478Z" transform="translate(-19.124 -19.85)" fill="#f04b4d"/>
      <g id="Group_171" data-name="Group 171" transform="translate(6.594 1.15)">
        <path id="Path_255" data-name="Path 255" d="M30.19,21H29.04a.308.308,0,0,1,.256.478l-.831,1.247h1.15l.831-1.247A.308.308,0,0,0,30.19,21Z" transform="translate(-28.465 -21)" fill="#de333f"/>
      </g>
      <path id="Path_256" data-name="Path 256" d="M23.95,26v2.215a11.661,11.661,0,0,1-.068,1.235h3.586a11.66,11.66,0,0,1-.068-1.235V26Z" transform="translate(-19.924 -21.974)" fill="#ecf0f9"/>
      <g id="Group_172" data-name="Group 172" transform="translate(6.326 4.026)">
        <path id="Path_257" data-name="Path 257" d="M28.144,29.451H29.22a11.8,11.8,0,0,1-.07-1.235V26H28v1.64A11.983,11.983,0,0,0,28.144,29.451Z" transform="translate(-28 -26)" fill="#c9d5e3"/>
      </g>
      <path id="Path_258" data-name="Path 258" d="M23.981,43l-.863,1.725.863,1.725h2.74l.863-1.725L26.72,43Z" transform="translate(-19.6 -29.197)" fill="#ffe27a"/>
      <path id="Path_259" data-name="Path 259" d="M26.176,46.751H22.725a.576.576,0,0,1-.515-.318l-1.15-2.3a.577.577,0,0,1,0-.514l1.15-2.3A.576.576,0,0,1,22.725,41h3.451a.576.576,0,0,1,.515.318l1.15,2.3a.577.577,0,0,1,0,.514l-1.15,2.3A.576.576,0,0,1,26.176,46.751Zm-3.1-1.15h2.74l.863-1.725-.863-1.725h-2.74l-.863,1.725Z" transform="translate(-18.7 -28.348)" fill="#6b0a0c"/>
      <path id="Path_260" data-name="Path 260" d="M26.992,30.511a10.878,10.878,0,0,1-1.365-5.27V22.625l.905-1.358A1.458,1.458,0,0,0,25.319,19H20.183a1.458,1.458,0,0,0-1.213,2.266l.905,1.358v2.616a10.878,10.878,0,0,1-1.365,5.27A12.024,12.024,0,0,0,17,36.338V39.7a1.727,1.727,0,0,0,1.725,1.725h8.051A1.727,1.727,0,0,0,28.5,39.7V36.338A12.024,12.024,0,0,0,26.992,30.511Zm-2.445-4.034H20.956a11.8,11.8,0,0,0,.07-1.235V23.026h3.451v2.215A11.8,11.8,0,0,0,24.547,26.476ZM20.183,20.15h5.136a.308.308,0,0,1,.256.478l-.831,1.247H20.758l-.831-1.247a.308.308,0,0,1,.256-.478ZM27.352,39.7a.576.576,0,0,1-.575.575H18.725a.576.576,0,0,1-.575-.575V36.338a10.878,10.878,0,0,1,1.365-5.269,12,12,0,0,0,1.266-3.442H24.72a12,12,0,0,0,1.266,3.442,10.878,10.878,0,0,1,1.365,5.269Z" transform="translate(-17 -19)" fill="#6b0a0c"/>
    </g>
    <g id="Group_175" data-name="Group 175" transform="translate(32.508 20.704)">
      <path id="Path_261" data-name="Path 261" d="M72.652,46.575A.575.575,0,0,0,72.077,46h-11.5a.575.575,0,0,0-.575.575v2.3a2.879,2.879,0,0,0,2.876,2.876h6.9a2.879,2.879,0,0,0,2.876-2.876Z" transform="translate(-58.85 -40.249)" fill="#ffe27a"/>
      <path id="Path_262" data-name="Path 262" d="M68.927,52.051h-6.9A4.031,4.031,0,0,1,58,48.026v-2.3A1.727,1.727,0,0,1,59.725,44h11.5a1.727,1.727,0,0,1,1.725,1.725v2.3A4.031,4.031,0,0,1,68.927,52.051Zm-9.2-6.9a.575.575,0,0,0-.575.575v2.3A2.879,2.879,0,0,0,62.026,50.9h6.9A2.879,2.879,0,0,0,71.8,48.026v-2.3a.575.575,0,0,0-.575-.575Z" transform="translate(-58 -39.399)" fill="#6b0a0c"/>
      <path id="Path_263" data-name="Path 263" d="M72.866,46h-.575v2.876c0,1.586-1.29,2.3-2.876,2.3h-6.9a2.855,2.855,0,0,1-.658-.083,2.845,2.845,0,0,0,1.808.658h6.9a2.879,2.879,0,0,0,2.876-2.876v-2.3A.576.576,0,0,0,72.866,46Z" transform="translate(-59.638 -40.249)" fill="#ffcb5b"/>
      <path id="Path_264" data-name="Path 264" d="M72.352,40.876a.576.576,0,0,0-.573-.575l-.076.01a.574.574,0,0,1-.578-.288.568.568,0,0,0-.5-.3.575.575,0,0,1-.575-.575.575.575,0,0,0-.9-.477.575.575,0,0,1-.865-.285.569.569,0,0,0-1.078,0,.575.575,0,0,1-.866.285.575.575,0,0,0-.9.477.47.47,0,0,0,.009.07.589.589,0,0,1-.25.57.575.575,0,0,1-.614.021.572.572,0,0,0-.834.3.575.575,0,0,1-.866.285.575.575,0,0,0-.9.477v.575H72.352Z" transform="translate(-59.7 -36.85)" fill="#ecf0f9"/>
      <path id="Path_265" data-name="Path 265" d="M72.077,41.751h-11.5A.575.575,0,0,1,60,41.176v-1.15a1.725,1.725,0,0,1,2.128-1.678,1.737,1.737,0,0,1,1.42-.62,1.725,1.725,0,0,1,2.031-1.105,1.715,1.715,0,0,1,2.644,0A1.726,1.726,0,0,1,70.278,37.8a1.728,1.728,0,0,1,.783.5,1.728,1.728,0,0,1,1.591,1.72v1.15A.575.575,0,0,1,72.077,41.751ZM61.15,40.6H71.5v-.575a.576.576,0,0,0-.573-.575l-.076.01a.574.574,0,0,1-.578-.288.568.568,0,0,0-.5-.3A.575.575,0,0,1,69.2,38.3a.575.575,0,0,0-.9-.477.575.575,0,0,1-.865-.285.569.569,0,0,0-1.078,0,.575.575,0,0,1-.866.285.575.575,0,0,0-.9.477.469.469,0,0,0,.009.07.589.589,0,0,1-.25.57.575.575,0,0,1-.614.021.572.572,0,0,0-.834.3.575.575,0,0,1-.866.285.575.575,0,0,0-.9.477Z" transform="translate(-58.85 -36)" fill="#6b0a0c"/>
      <g id="Group_174" data-name="Group 174" transform="translate(2.3 3.451)">
        <path id="Path_266" data-name="Path 266" d="M71.78,42h0a1.965,1.965,0,0,1-1.388.575H62v.575H72.352v-.575A.575.575,0,0,0,71.78,42Z" transform="translate(-62 -42)" fill="#c9d5e3"/>
      </g>
      <ellipse id="Ellipse_149" data-name="Ellipse 149" cx="0.465" cy="0.93" rx="0.465" ry="0.93" transform="translate(3.771 6.21)" fill="#f26a56"/>
      <ellipse id="Ellipse_150" data-name="Ellipse 150" cx="0.465" cy="0.93" rx="0.465" ry="0.93" transform="translate(5.632 6.21)" fill="#f26a56"/>
      <circle id="Ellipse_151" data-name="Ellipse 151" cx="0.93" cy="0.93" r="0.93" transform="translate(7.492 6.21)" fill="#f26a56"/>
      <ellipse id="Ellipse_152" data-name="Ellipse 152" cx="0.465" cy="0.93" rx="0.465" ry="0.93" transform="translate(10.283 6.21)" fill="#f26a56"/>
    </g>
  </g>
</svg>
