<svg xmlns="http://www.w3.org/2000/svg" width="22" height="19.699" viewBox="0 0 22 19.699">
  <g id="Following" fill="none" stroke-miterlimit="10" opacity="0.4">
    <path d="M21.41,3.793A6.25,6.25,0,0,0,15.808,0,5.925,5.925,0,0,0,11,2.149,5.925,5.925,0,0,0,6.19,0a6.25,6.25,0,0,0-5.6,3.793,6.377,6.377,0,0,0,1.253,7.131,109.962,109.962,0,0,0,8.493,8.522,1.07,1.07,0,0,0,1.381,0c.051-.025,3.991-3.566,8.493-8.522A6.451,6.451,0,0,0,21.41,3.793Z" stroke="none"/>
    <path d="M 6.189558029174805 1.999996185302734 C 4.624778747558594 1.999996185302734 3.107797622680664 3.047155380249023 2.414749145507812 4.605725288391113 L 2.410287857055664 4.615765571594238 L 2.405708312988281 4.62574577331543 C 1.640058517456055 6.297884941101074 1.972507476806641 8.102065086364746 3.317817687988281 9.575685501098633 L 3.323108673095703 9.581485748291016 L 3.328348159790039 9.587315559387207 C 6.763290405273438 13.40967273712158 9.800514221191406 16.26361656188965 11.02305221557617 17.37992477416992 C 12.29485893249512 16.20752716064453 15.36993408203125 13.27499389648438 18.71973609924316 9.588076591491699 C 20.03686141967773 8.100106239318848 20.35486602783203 6.291960716247559 19.59192848205566 4.62574577331543 L 19.58734893798828 4.615765571594238 L 19.58288764953613 4.605725288391113 C 18.88983917236328 3.047155380249023 17.37285804748535 1.999996185302734 15.80807876586914 1.999996185302734 C 14.40009880065918 1.999996185302734 13.3062686920166 2.472126007080078 12.55697822570801 3.403274536132812 L 10.99881839752197 5.339605331420898 L 9.440658569335938 3.403274536132812 C 8.691368103027344 2.472126007080078 7.597537994384766 1.999996185302734 6.189558029174805 1.999996185302734 M 6.189558029174805 -3.814697265625e-06 C 8.568608283996582 -3.814697265625e-06 10.10347843170166 1.036785125732422 10.99881839752197 2.149425506591797 C 11.89415836334229 1.036785125732422 13.42902851104736 -3.814697265625e-06 15.80807876586914 -3.814697265625e-06 C 18.16154861450195 -3.814697265625e-06 20.38710784912109 1.491954803466797 21.41035842895508 3.793105125427246 C 22.51034927368164 6.195405006408691 22.04988861083984 8.85057544708252 20.20804786682129 10.92413520812988 C 15.70575904846191 15.88045501708984 11.76625823974609 19.42068481445312 11.71508884429932 19.44597625732422 C 11.51043796539307 19.62298583984375 11.28020858764648 19.69885444641113 11.02439880371094 19.69885444641113 C 10.76858806610107 19.69885444641113 10.53835868835449 19.62298583984375 10.33370876312256 19.44597625732422 C 10.28254795074463 19.42068481445312 6.317458152770996 15.90574550628662 1.84075927734375 10.92413520812988 C -0.05225181579589844 8.85057544708252 -0.5127124786376953 6.195405006408691 0.5872783660888672 3.793105125427246 C 1.610528945922852 1.491954803466797 3.836088180541992 -3.814697265625e-06 6.189558029174805 -3.814697265625e-06 Z" stroke="none" fill="#4a4a4a"/>
  </g>
</svg>
