<svg id="Glyph_Copy" data-name="Glyph Copy" xmlns="http://www.w3.org/2000/svg" width="22" height="22" viewBox="0 0 22 22">
  <path id="Shape" d="M11,22A11,11,0,0,1,3.222,3.222,11,11,0,1,1,18.778,18.778,10.928,10.928,0,0,1,11,22ZM11,1.9A9.1,9.1,0,1,0,20.1,11,9.11,9.11,0,0,0,11,1.9ZM6.188,16.5a.686.686,0,0,1-.583-1.05l1.6-2.561L8.268,11.18c0-.024-.005-.048-.008-.071A.8.8,0,0,1,8.25,11,2.753,2.753,0,0,1,11,8.25a.8.8,0,0,1,.109.01l.071.008L12.889,7.2l2.56-1.6a.686.686,0,0,1,.85.1.688.688,0,0,1,.1.85L14.8,9.113l-1.064,1.7,0,0h0c0,.026.005.051.009.076a.75.75,0,0,1,.009.1A2.754,2.754,0,0,1,11,13.75a.75.75,0,0,1-.1-.009c-.025,0-.051-.007-.076-.009L9.111,14.8,6.552,16.4A.683.683,0,0,1,6.188,16.5ZM11,9.625A1.375,1.375,0,1,0,12.375,11,1.377,1.377,0,0,0,11,9.625Zm2.655.705a2.722,2.722,0,0,1,.073.434A2.719,2.719,0,0,0,13.655,10.33Z" fill="#b5bfd0"/>
</svg>
