<svg xmlns="http://www.w3.org/2000/svg" width="82.047" height="71.837" viewBox="0 0 82.047 71.837">
  <g id="Group_1" data-name="Group 1" transform="translate(-322.496 -213.513)">
    <path id="Path_1" data-name="Path 1" d="M343.663,213.765a8.59,8.59,0,0,1,6.714,1.214,20.608,20.608,0,0,1,6.129,6.5,64.635,64.635,0,0,1,7.021,16.819,64.6,64.6,0,0,1,6.837-16.551,21.561,21.561,0,0,1,5.938-6.54,8.778,8.778,0,0,1,6.9-1.487,12.081,12.081,0,0,1,6,3.914,33.535,33.535,0,0,1,5.021,7.8,86.811,86.811,0,0,1,5.936,17.659,169.907,169.907,0,0,1,3.715,24.622c.467,5.862.713,11.743.671,17.623-3.412.005-6.823,0-10.235,0q.005-12.2-.882-24.383a200.5,200.5,0,0,0-3.167-24.251,69.287,69.287,0,0,0-3.324-11.746,15.577,15.577,0,0,0-3.171-5.258,3.125,3.125,0,0,0-3.083-.936,6.823,6.823,0,0,0-3.346,3.176,39.19,39.19,0,0,0-3.737,9.709,148.4,148.4,0,0,0-3.835,23.5c-.772,8.334-1.1,16.706-1.11,25.074q-5.13,0-10.26,0c0-8.732-.368-17.466-1.213-26.158a140.527,140.527,0,0,0-4.039-23.533,33.61,33.61,0,0,0-3.859-9.255c-.826-1.174-1.9-2.423-3.413-2.609-1.612-.179-2.853,1.132-3.7,2.336a32.774,32.774,0,0,0-3.843,9.257,150.444,150.444,0,0,0-4.147,24.307c-1.014,10.222-1.445,20.5-1.44,30.767q-5.12,0-10.238,0a203.151,203.151,0,0,1,1.388-24.843,147.593,147.593,0,0,1,4.5-23.151,75.054,75.054,0,0,1,4.629-12.3,34.821,34.821,0,0,1,4.235-6.731A12.938,12.938,0,0,1,343.663,213.765Z" transform="translate(0)" fill="#fff"/>
  </g>
</svg>
