<svg xmlns="http://www.w3.org/2000/svg" width="22.669" height="23.669" viewBox="0 0 22.669 23.669">
  <g id="Group_245" data-name="Group 245" transform="translate(-334 -60.091)">
    <path id="Path" d="M20.079,14.426A2.3,2.3,0,0,1,17.758,16.7H2.321a2.278,2.278,0,1,1,0-4.556s0-6.556,0-6.556A7.657,7.657,0,0,1,10.039-2a7.658,7.658,0,0,1,7.723,7.593v6.555A2.3,2.3,0,0,1,20.079,14.426Z" transform="translate(334 62.5)" fill="#b5bfd0"/>
    <path id="Path-2" data-name="Path" d="M0,0H1.545A1.915,1.915,0,0,0,3.475,1.9,1.915,1.915,0,0,0,5.406,0H6.95A3.446,3.446,0,0,1,3.475,3.417,3.446,3.446,0,0,1,0,0Z" transform="translate(340.564 80.343)" fill="#b5bfd0"/>
    <path id="Path-3" data-name="Path" d="M16.217,12.149a1.53,1.53,0,0,1-1.544-1.519V4.074A6.126,6.126,0,0,0,8.495-2,6.126,6.126,0,0,0,2.317,4.074v6.555A1.533,1.533,0,0,1,.773,12.149a.759.759,0,1,0,0,1.519H16.214a.759.759,0,1,0,0-1.519Z" transform="translate(335.545 64.019)" fill="#fff"/>
    <circle id="Oval" cx="4.724" cy="4.724" r="4.724" transform="translate(347.221 60.091)" fill="#fda256"/>
  </g>
</svg>
