<svg xmlns="http://www.w3.org/2000/svg" width="22" height="22" viewBox="0 0 22 22">
  <g id="Group_233" data-name="Group 233" transform="translate(-326 -766)">
    <g id="Path" transform="translate(331 766)" fill="none" stroke-miterlimit="10" opacity="0.4">
      <path d="M0,5.5A5.766,5.766,0,0,0,6,11a5.766,5.766,0,0,0,6-5.5A5.766,5.766,0,0,0,6,0,5.765,5.765,0,0,0,0,5.5Z" stroke="none"/>
      <path d="M 6 2 C 3.794389724731445 2 2 3.570089817047119 2 5.5 C 2 7.429909706115723 3.794389724731445 9 6 9 C 8.205610275268555 9 10 7.429909706115723 10 5.5 C 10 3.570089817047119 8.205610275268555 2 6 2 M 6 0 C 9.313600540161133 0 12 2.461799621582031 12 5.5 C 12 8.537469863891602 9.313600540161133 11 6 11 C 2.685600280761719 11 0 8.537469863891602 0 5.5 C 0 2.461799621582031 2.685600280761719 0 6 0 Z" stroke="none" fill="#4a4a4a"/>
    </g>
    <g id="Path-2" data-name="Path" transform="translate(326 778)" fill="none" stroke-miterlimit="10" opacity="0.4">
      <path d="M0,6.821C0,9.765,3.441,10,8.1,10c.883,0,1.809-.009,2.766-.009S12.751,10,13.634,10C18.3,10,22,9.766,22,6.821,22,3.319,17,0,11,0S0,3.319,0,6.821Z" stroke="none"/>
      <path d="M 13.63450241088867 8.000141143798828 C 15.5399923324585 8.000141143798828 17.68484306335449 7.968481540679932 19.02140235900879 7.590391635894775 C 19.62203216552734 7.420491695404053 19.8413028717041 7.241771697998047 19.90769195556641 7.172811508178711 C 19.94210243225098 7.137081623077393 19.99968338012695 7.077281475067139 19.99968338012695 6.820861339569092 C 19.99968338012695 5.841641426086426 19.13251304626465 4.70734167098999 17.67999267578125 3.786611557006836 C 15.88877296447754 2.651201486587524 13.45389270782471 2.000001430511475 10.99968242645264 2.000001430511475 C 8.545502662658691 2.000001430511475 6.110692501068115 2.651191473007202 4.319572448730469 3.786591529846191 C 2.867132663726807 4.707301616668701 2.00000262260437 5.841611385345459 2.00000262260437 6.820861339569092 C 2.00000262260437 7.114771366119385 2.066872596740723 7.188521385192871 2.092052698135376 7.216291427612305 C 2.148022651672363 7.278021335601807 2.335912704467773 7.438661575317383 2.870372533798218 7.596731662750244 C 4.128902435302734 7.968971729278564 6.23127269744873 8.000141143798828 8.103073120117188 8.000141143798828 C 8.532842636108398 8.000141143798828 8.972912788391113 7.998091697692871 9.421732902526855 7.996001720428467 C 9.891142845153809 7.993821620941162 10.37653255462646 7.991571426391602 10.86878299713135 7.991571426391602 C 11.36053276062012 7.991571426391602 11.84588241577148 7.993821620941162 12.31525230407715 7.996001720428467 C 12.76427268981934 7.998091697692871 13.20463275909424 8.000141143798828 13.63450241088867 8.000141143798828 M 13.63450241088867 10.00014114379883 C 12.75135231018066 10.00014114379883 11.8242130279541 9.991571426391602 10.86878299713135 9.991571426391602 C 9.912572860717773 9.991571426391602 8.986212730407715 10.00014114379883 8.103073120117188 10.00014114379883 C 3.440642595291138 10.00014114379883 2.643737843754934e-06 9.765141487121582 2.643737843754934e-06 6.820861339569092 C 2.643737843754934e-06 3.31943154335022 4.996832847595215 1.525573679828085e-06 10.99968242645264 1.525573679828085e-06 C 17.00254249572754 1.525573679828085e-06 21.99968338012695 3.31943154335022 21.99968338012695 6.820861339569092 C 21.99968338012695 9.765861511230469 18.2977123260498 10.00014114379883 13.63450241088867 10.00014114379883 Z" stroke="none" fill="#4a4a4a"/>
    </g>
  </g>
</svg>
